:FULLY-SPECIFIED
:FORCE-ALL-JOINTS-BE-3DOF
:DEGREES
2956
root -5.99712 13.1235 -28.7317 1242.7 -66.8833 -159.756
lfemur -68.0194 43.6822 -6.62692
ltibia 78.1812 0 0
lfoot -7.07969 -3.55073 0
ltoes -37.6804 0 0
rfemur -34.1626 -18.3239 22.7643
rtibia 90.9109 0 0
rfoot -40.8209 -30.4115 0
rtoes -13.184 0 0
lowerback 16.3327 5.33041 1.34765
upperback -4.45991 7.66562 1.50503
thorax -14.2339 3.49399 -1.23082
lowerneck -2.95032 9.64806 1.83729
upperneck 8.34554 12.6409 1.5105
head 3.2126 6.3591 0.646437
lclavicle 4.62188e-15 -3.27466e-15 0
lhumerus 5.54301 14.5422 82.6591
lradius 90.9538 0 0
lwrist -18.3973 0 0
lhand -39.7798 390.541 0
lfingers 7.12502 0 0
lthumb -12.7554 -659.87 0
rclavicle 4.62188e-15 -3.27466e-15 0
rhumerus -57.3474 50.7912 -109.831
rradius 112.651 0 0
rwrist -80.8602 0 0
rhand 6.8477 -385.685 0
rfingers 7.12502 0 0
rthumb 32.1297 307.145 0
2957
root -5.98888 13.1223 -28.7315 1242.97 -67.0182 -159.938
lfemur -68.125 43.2136 -6.71797
ltibia 78.0619 0 0
lfoot -6.72257 -3.34355 0
ltoes -37.543 0 0
rfemur -34.4377 -18.296 22.8116
rtibia 91.0579 0 0
rfoot -40.7856 -30.6046 0
rtoes -12.9037 0 0
lowerback 16.4236 5.28362 1.26286
upperback -4.42475 7.58512 1.50382
thorax -14.2597 3.46294 -1.17052
lowerneck -2.98115 9.65749 1.74473
upperneck 8.14252 12.6726 1.38925
head 3.15052 6.36906 0.618036
lclavicle 2.58698e-15 -4.65795e-16 0
lhumerus 5.57541 14.7454 82.3415
lradius 90.7959 0 0
lwrist -18.1118 0 0
lhand -39.5628 390.192 0
lfingers 7.12502 0 0
lthumb -12.5462 -660.206 0
rclavicle 2.58698e-15 -4.65795e-16 0
rhumerus -56.6129 50.6651 -109.08
rradius 112.427 0 0
rwrist -80.1245 0 0
rhand 6.3932 -385.771 0
rfingers 7.12502 0 0
rthumb 31.6969 306.973 0
2958
root -5.98064 13.1212 -28.7313 1243.32 -67.1863 -160.176
lfemur -68.2609 42.6171 -6.83264
ltibia 77.9123 0 0
lfoot -6.27847 -3.06598 0
ltoes -37.4047 0 0
rfemur -34.795 -18.2544 22.8729
rtibia 91.2495 0 0
rfoot -40.7409 -30.8517 0
rtoes -12.5437 0 0
lowerback 16.5401 5.22288 1.15513
upperback -4.37954 7.48111 1.50236
thorax -14.2926 3.4227 -1.09342
lowerneck -3.02153 9.67158 1.62543
upperneck 7.88007 12.7164 1.23151
head 3.07045 6.38321 0.581084
lclavicle -6.60711e-16 2.61831e-15 0
lhumerus 5.61459 15.0149 81.9318
lradius 90.593 0 0
lwrist -17.744 0 0
lhand -39.2828 389.754 0
lfingers 7.12502 0 0
lthumb -12.2763 -660.627 0
rclavicle -6.60711e-16 2.61831e-15 0
rhumerus -55.6773 50.5036 -108.123
rradius 112.142 0 0
rwrist -79.187 0 0
rhand 5.81484 -385.88 0
rfingers 7.12502 0 0
rthumb 31.1461 306.754 0
2959
root -5.9724 13.12 -28.7311 1243.77 -67.3915 -160.476
lfemur -68.4314 41.8766 -6.9738
ltibia 77.729 0 0
lfoot -5.73728 -2.70761 0
ltoes -37.2692 0 0
rfemur -35.2458 -18.1969 22.9501
rtibia 91.4916 0 0
rfoot -40.6856 -31.1598 0
rtoes -12.0936 0 0
lowerback 16.6856 5.14626 1.02155
upperback -4.32295 7.3504 1.50064
thorax -14.3333 3.37199 -0.997305
lowerneck -3.0728 9.69113 1.47583
upperneck 7.55018 12.7739 1.03225
head 2.96999 6.40224 0.534409
lclavicle -5.34234e-15 5.96354e-15 0
lhumerus 5.66122 15.3603 81.4177
lradius 90.3392 0 0
lwrist -17.2829 0 0
lhand -38.9313 389.215 0
lfingers 7.12502 0 0
lthumb -11.9374 -661.145 0
rclavicle -5.34234e-15 5.96354e-15 0
rhumerus -54.5146 50.302 -106.931
rradius 111.787 0 0
rwrist -78.0217 0 0
rhand 5.0968 -386.015 0
rfingers 7.12502 0 0
rthumb 30.4623 306.482 0
2960
root -5.93045 13.1415 -28.7558 1243.84 -67.5752 -160.477
lfemur -68.4355 41.4573 -6.98348
ltibia 77.4671 0 0
lfoot -5.39174 -2.58084 0
ltoes -37.0571 0 0
rfemur -35.3856 -18.1098 23.0504
rtibia 91.4846 0 0
rfoot -40.6206 -31.2923 0
rtoes -11.9139 0 0
lowerback 16.716 5.1393 0.977568
upperback -4.29506 7.32866 1.48263
thorax -14.3222 3.36492 -0.98846
lowerneck -3.06852 9.65052 1.43087
upperneck 7.41958 12.7278 0.971625
head 2.92618 6.37706 0.516298
lclavicle -7.1671e-15 4.95236e-15 0
lhumerus 5.73963 15.4483 81.2473
lradius 90.2199 0 0
lwrist -16.9588 0 0
lhand -38.8045 389.281 0
lfingers 7.12502 0 0
lthumb -11.8151 -661.072 0
rclavicle -7.1671e-15 4.95236e-15 0
rhumerus -53.5469 49.905 -106.043
rradius 111.41 0 0
rwrist -77.9458 0 0
rhand 4.61116 -386.131 0
rfingers 7.12502 0 0
rthumb 29.9975 306.296 0
2961
root -5.8885 13.163 -28.7806 1243.87 -67.6767 -160.473
lfemur -68.4353 41.229 -6.9868
ltibia 77.3203 0 0
lfoot -5.2032 -2.51291 0
ltoes -36.9401 0 0
rfemur -35.4589 -18.0605 23.1065
rtibia 91.4772 0 0
rfoot -40.5842 -31.3636 0
rtoes -11.8183 0 0
lowerback 16.7313 5.13646 0.954411
upperback -4.27994 7.31818 1.47237
thorax -14.3152 3.36162 -0.984832
lowerneck -3.06539 9.62701 1.40703
upperneck 7.3497 12.7006 0.940095
head 2.90255 6.36239 0.506743
lclavicle -7.80021e-15 4.50027e-15 0
lhumerus 5.78366 15.4941 81.1576
lradius 90.1555 0 0
lwrist -16.7801 0 0
lhand -38.7372 389.327 0
lfingers 7.12502 0 0
lthumb -11.7502 -661.023 0
rclavicle -7.80021e-15 4.50027e-15 0
rhumerus -53.0118 49.6811 -105.554
rradius 111.2 0 0
rwrist -77.9202 0 0
rhand 4.34505 -386.195 0
rfingers 7.12502 0 0
rthumb 29.7428 306.194 0
2962
root -5.84656 13.1845 -28.8053 1243.88 -67.7326 -160.462
lfemur -68.4292 41.1119 -6.98386
ltibia 77.2352 0 0
lfoot -5.10567 -2.48071 0
ltoes -36.8768 0 0
rfemur -35.49 -18.0305 23.1388
rtibia 91.4649 0 0
rfoot -40.5633 -31.3981 0
rtoes -11.7745 0 0
lowerback 16.7362 5.13726 0.944432
upperback -4.27234 7.31603 1.46602
thorax -14.3096 3.36127 -0.98581
lowerneck -3.0619 9.61165 1.39638
upperneck 7.31681 12.6817 0.927473
head 2.89101 6.35257 0.502578
lclavicle -7.264e-15 4.50372e-15 0
lhumerus 5.8094 15.5122 81.1192
lradius 90.1238 0 0
lwrist -16.6833 0 0
lhand -38.7071 389.374 0
lfingers 7.12502 0 0
lthumb -11.7212 -660.975 0
rclavicle -7.264e-15 4.50372e-15 0
rhumerus -52.718 49.548 -105.29
rradius 111.081 0 0
rwrist -77.9446 0 0
rhand 4.20465 -386.229 0
rfingers 7.12502 0 0
rthumb 29.6083 306.141 0
